<svg width="86" height="86" viewBox="0 0 86 86" fill="none" xmlns="http://www.w3.org/2000/svg">
<g clip-path="url(#clip0_2739_25299)">
<rect width="86" height="86" rx="20" fill="#F8F8F8"/>
<path d="M49.6317 36.3691L21.1416 64.8592" stroke="#0E0E0E" stroke-width="2" stroke-linecap="round" stroke-linejoin="round"/>
<path d="M64.8592 25.6916C64.8592 23.1784 62.8233 21.1426 60.3102 21.1426C52.1656 21.1426 35.8898 21.1426 35.3867 21.1426C27.7906 21.1426 21.6328 27.3004 21.6328 34.8964C21.6328 42.4925 27.7906 48.6503 35.3867 48.6503C36.0586 48.6503 36.7031 48.7446 37.3515 48.6503C37.3515 48.6503 37.3515 49.9431 37.3515 50.6151C37.3515 58.2111 43.5093 64.3689 51.1053 64.3689C58.7014 64.3689 64.8592 58.2111 64.8592 50.6151C64.8592 50.1119 64.8592 33.8361 64.8592 25.6916Z" stroke="#0E0E0E" stroke-width="2" stroke-linecap="round" stroke-linejoin="round"/>
</g>
<defs>
<clipPath id="clip0_2739_25299">
<rect width="86" height="86" fill="white"/>
</clipPath>
</defs>
</svg>
