<svg width="80" height="46" viewBox="0 0 80 46" fill="none" xmlns="http://www.w3.org/2000/svg">
<g clip-path="url(#clip0_2764_29161)">
<rect width="80" height="46" rx="9.35394" fill="#F0F0F0"/>
<path d="M45.7561 13.6891H34.2109V34.7361H45.7561V13.6891Z" fill="#C7C7C7"/>
<path d="M34.9819 24.2122C34.9819 19.9361 36.963 16.1409 40.003 13.6887C37.7657 11.9037 34.9435 10.825 31.8651 10.825C24.5725 10.825 18.6719 16.8124 18.6719 24.2122C18.6719 31.612 24.5725 37.5994 31.8651 37.5994C34.9435 37.5994 37.7657 36.5206 40.003 34.7357C36.9588 32.3182 34.9819 28.4883 34.9819 24.2122Z" fill="#5B5B5B"/>
<path d="M61.339 24.2122C61.339 31.612 55.4383 37.5994 48.1458 37.5994C45.0673 37.5994 42.2451 36.5206 40.0078 34.7357C43.0862 32.2792 45.0289 28.4883 45.0289 24.2122C45.0289 19.9361 43.0478 16.1409 40.0078 13.6887C42.2408 11.9037 45.0631 10.825 48.1415 10.825C55.4383 10.825 61.339 16.8514 61.339 24.2122Z" fill="#898989"/>
</g>
<defs>
<clipPath id="clip0_2764_29161">
<rect width="80" height="46" fill="white"/>
</clipPath>
</defs>
</svg>
