<svg width="80" height="46" viewBox="0 0 80 46" fill="none" xmlns="http://www.w3.org/2000/svg">
<g clip-path="url(#clip0_2764_29159)">
<rect width="80" height="46" rx="9.35394" fill="#F0F0F0"/>
<path fill-rule="evenodd" clip-rule="evenodd" d="M21.0382 16.2374C22.6644 16.2374 24.165 17.1326 23.9597 19.3635C23.7108 22.0148 22.3111 23.4819 20.1025 23.4882H18.1727C17.8952 23.4882 17.7609 23.718 17.6887 24.1889L17.3154 26.5966C17.2594 26.9602 17.0753 27.1395 16.804 27.1395H15.0086C14.7224 27.1395 14.6229 26.9539 14.6863 26.5385L16.1682 16.8889C16.2416 16.4142 16.4171 16.2374 16.7368 16.2374H21.0345H21.0382ZM18.1142 21.4038H19.5762C20.4907 21.3684 21.0979 20.7258 21.1589 19.5668C21.1962 18.8509 20.7197 18.3383 19.9619 18.3421L18.5858 18.3484L18.1142 21.4038ZM28.8409 26.4009C29.0051 26.2494 29.1718 26.1711 29.1482 26.358L29.0897 26.8049C29.0599 27.0385 29.1507 27.1622 29.3647 27.1622H30.9598C31.2286 27.1622 31.3592 27.0524 31.4252 26.6307L32.4081 20.371C32.4579 20.0566 32.382 19.9026 32.1468 19.9026H30.3925C30.2344 19.9026 30.1573 19.9922 30.1162 20.2372L30.0515 20.6223C30.0179 20.823 29.9271 20.8584 29.8425 20.6563C29.5451 19.9417 28.7861 19.6211 27.7273 19.6463C25.2674 19.6981 23.6088 21.5932 23.4309 24.0223C23.294 25.901 24.6204 27.3769 26.3698 27.3769C27.6389 27.3769 28.2063 26.9981 28.8459 26.4047L28.8409 26.4009ZM27.5046 25.4376C26.4457 25.4376 25.7079 24.5803 25.8609 23.5299C26.0139 22.4795 27.0044 21.6222 28.0632 21.6222C29.1221 21.6222 29.8599 22.4795 29.7069 23.5299C29.5538 24.5803 28.5647 25.4376 27.5046 25.4376ZM35.5299 19.8824H33.9124C33.579 19.8824 33.4433 20.1349 33.5491 20.4455L35.5573 26.4123L33.5877 29.2517C33.4222 29.4891 33.5504 29.705 33.783 29.705H35.6009C35.7068 29.7174 35.8141 29.6987 35.9098 29.651C36.0055 29.6033 36.0857 29.5287 36.1409 29.4361L42.3173 20.4468C42.5077 20.1703 42.4181 19.8799 42.1058 19.8799H40.385C40.0901 19.8799 39.9719 19.9986 39.8027 20.2473L37.2271 24.0349L36.0762 20.2384C36.009 20.0087 35.841 19.8824 35.5312 19.8824H35.5299Z" fill="#5B5B5B"/>
<path fill-rule="evenodd" clip-rule="evenodd" d="M48.744 16.238C50.3702 16.238 51.8708 17.1332 51.6655 19.3641C51.4166 22.0154 50.0169 23.4825 47.8083 23.4888H45.8797C45.6023 23.4888 45.4679 23.7186 45.3957 24.1895L45.0225 26.5972C44.9665 26.9608 44.7823 27.1401 44.5111 27.1401H42.7156C42.4294 27.1401 42.3299 26.9545 42.3934 26.5391L43.8777 16.887C43.9512 16.4122 44.1266 16.2355 44.4464 16.2355H48.744V16.238ZM45.82 21.4043H47.282C48.1965 21.369 48.8037 20.7264 48.8647 19.5673C48.902 18.8515 48.4255 18.3389 47.6677 18.3427L46.2916 18.349L45.82 21.4043V21.4043ZM56.5467 26.4015C56.7109 26.25 56.8776 26.1717 56.854 26.3586L56.7955 26.8055C56.7657 27.0391 56.8565 27.1628 57.0705 27.1628H58.6656C58.9344 27.1628 59.065 27.053 59.131 26.6313L60.1139 20.3716C60.1637 20.0572 60.0878 19.9032 59.8526 19.9032H58.1007C57.9427 19.9032 57.8656 19.9928 57.8245 20.2378L57.7598 20.6228C57.7262 20.8236 57.6354 20.8589 57.5508 20.6569C57.2534 19.9423 56.4944 19.6216 55.4356 19.6469C52.9757 19.6986 51.3171 21.5937 51.1392 24.0229C51.0023 25.9015 52.3287 27.3774 54.0781 27.3774C55.3472 27.3774 55.9146 26.9987 56.5541 26.4053L56.5467 26.4015ZM55.2116 25.4382C54.1527 25.4382 53.4149 24.5809 53.5679 23.5305C53.721 22.48 54.7114 21.6228 55.7703 21.6228C56.8291 21.6228 57.5669 22.48 57.4139 23.5305C57.2609 24.5809 56.2704 25.4382 55.2116 25.4382ZM62.5688 27.1729H60.7273C60.6953 27.1744 60.6634 27.1686 60.6338 27.1561C60.6042 27.1436 60.5777 27.1246 60.5562 27.1004C60.5346 27.0763 60.5186 27.0477 60.5093 27.0166C60.5 26.9854 60.4975 26.9526 60.5021 26.9204L62.1196 16.5221C62.1351 16.4511 62.1737 16.3875 62.2293 16.3417C62.2849 16.2959 62.3541 16.2704 62.4257 16.2696H64.2672C64.2992 16.2681 64.3312 16.2739 64.3608 16.2864C64.3904 16.2989 64.4169 16.3179 64.4384 16.342C64.4599 16.3662 64.4759 16.3948 64.4852 16.4259C64.4946 16.4571 64.497 16.4899 64.4924 16.5221L62.8749 26.9204C62.86 26.9918 62.8215 27.056 62.7659 27.1023C62.7103 27.1487 62.6408 27.1745 62.5688 27.1754V27.1729Z" fill="#393939"/>
</g>
<defs>
<clipPath id="clip0_2764_29159">
<rect width="80" height="46" fill="white"/>
</clipPath>
</defs>
</svg>
