<svg width="80" height="46" viewBox="0 0 80 46" fill="none" xmlns="http://www.w3.org/2000/svg">
<g clip-path="url(#clip0_2764_29160)">
<rect width="80" height="46" rx="9.35394" fill="#F0F0F0"/>
<path d="M20.518 21.0298C20.518 20.5315 20.9209 20.3398 21.5883 20.3398C22.5454 20.3398 23.7543 20.6337 24.7113 21.1576V18.1548C23.6661 17.7331 22.6335 17.567 21.5883 17.567C19.032 17.567 17.332 18.9215 17.332 21.1831C17.332 24.7098 22.1172 24.1476 22.1172 25.6681C22.1172 26.2559 21.6135 26.4476 20.9083 26.4476C19.8631 26.4476 18.5283 26.0131 17.4705 25.4254V28.4665C18.6417 28.9776 19.8254 29.1948 20.9083 29.1948C23.5276 29.1948 25.3283 27.8787 25.3283 25.5915C25.3157 21.7837 20.518 22.4609 20.518 21.0298ZM29.0306 15.0115L25.958 15.6759L25.9454 25.9109C25.9454 27.802 27.3431 29.1948 29.2068 29.1948C30.2394 29.1948 30.995 29.0031 31.4106 28.7731V26.1792C31.0076 26.3454 29.018 26.9331 29.018 25.042V20.5059H31.4106V17.7842H29.018L29.0306 15.0115ZM35.3268 18.7298L35.1254 17.7842H32.4054V28.9648H35.5535V21.3876C36.2965 20.4037 37.5557 20.5826 37.9461 20.7231V17.7842C37.5431 17.6309 36.0698 17.3498 35.3268 18.7298ZM38.7143 17.7842H41.875V28.9648H38.7143V17.7842ZM38.7143 16.8131L41.875 16.1231V13.5292L38.7143 14.2065V16.8131ZM48.4483 17.567C47.2143 17.567 46.4209 18.1548 45.9802 18.5637L45.8165 17.7715H43.0461V32.6704L46.1943 31.9931L46.2068 28.377C46.6602 28.7092 47.3276 29.182 48.4357 29.182C50.6898 29.182 52.7424 27.342 52.7424 23.2915C52.7298 19.5859 50.652 17.567 48.4483 17.567ZM47.6928 26.3709C46.9498 26.3709 46.5091 26.1026 46.2068 25.7704L46.1943 21.0298C46.5217 20.6592 46.975 20.4037 47.6928 20.4037C48.8387 20.4037 49.632 21.707 49.632 23.3809C49.632 25.0931 48.8513 26.3709 47.6928 26.3709ZM62.6654 23.4192C62.6654 20.1481 61.1039 17.567 58.1194 17.567C55.1224 17.567 53.3091 20.1481 53.3091 23.3937C53.3091 27.2398 55.4498 29.182 58.5224 29.182C60.0209 29.182 61.1543 28.837 62.0106 28.3515V25.7959C61.1543 26.2304 60.172 26.4987 58.9254 26.4987C57.7039 26.4987 56.6209 26.0642 56.4824 24.5565H62.6402C62.6402 24.3904 62.6654 23.7259 62.6654 23.4192ZM56.4446 22.2054C56.4446 20.7615 57.3135 20.1609 58.1068 20.1609C58.875 20.1609 59.6935 20.7615 59.6935 22.2054H56.4446Z" fill="#393939"/>
</g>
<defs>
<clipPath id="clip0_2764_29160">
<rect width="80" height="46" fill="white"/>
</clipPath>
</defs>
</svg>
