<svg width="48" height="52" viewBox="0 0 48 52" fill="none" xmlns="http://www.w3.org/2000/svg">
<path d="M12.0031 40.95V40.7305H11.7836H6.54806C3.79246 40.7305 1.532 38.47 1.532 35.7144V7.79141C1.532 5.0358 3.79246 2.77535 6.54806 2.77535H41.4518C44.2074 2.77535 46.4679 5.0358 46.4679 7.79141V35.7144C46.4679 38.47 44.2074 40.7305 41.4518 40.7305H24.5317H24.4652L24.41 40.7673L12.0031 49.0341V40.95ZM6.54806 37.6791H15.0545V42.9269V43.3373L15.3958 43.1095L23.5347 37.6791H41.4518C42.5547 37.6791 43.4165 36.8173 43.4165 35.7144V7.79141C43.4165 6.68851 42.5547 5.82672 41.4518 5.82672H6.54806C5.44517 5.82672 4.58337 6.68851 4.58337 7.79141V35.7144C4.58337 36.8173 5.44517 37.6791 6.54806 37.6791Z" fill="#0E0E0E" stroke="#C4C4C4" stroke-width="0.439002"/>
</svg>
