<svg width="52" height="52" viewBox="0 0 52 52" fill="none" xmlns="http://www.w3.org/2000/svg">
<path d="M46.538 9.86821L46.9921 9.554L46.4564 9.4201C46.4424 9.4166 46.4246 9.4113 46.4036 9.40508C46.3207 9.3805 46.1889 9.34142 46.0539 9.34142H5.94413C5.80918 9.34142 5.67739 9.3805 5.5945 9.40508C5.5735 9.4113 5.55563 9.4166 5.54165 9.4201L5.00599 9.554L5.46002 9.86821L25.8568 23.9836L25.999 24.082L26.1413 23.9836L46.538 9.86821ZM4.26331 12.8613L3.87096 12.5895V13.0668V40.5854C3.87096 41.749 4.78052 42.6585 5.94413 42.6585H46.0539C47.2175 42.6585 48.1271 41.749 48.1271 40.5854V13.0668V12.5895L47.7348 12.8613L25.999 27.9178L4.26331 12.8613ZM0.724609 11.4146C0.724609 8.54727 3.07681 6.19507 5.94413 6.19507H46.0539C48.9213 6.19507 51.2735 8.54727 51.2735 11.4146V40.5854C51.2735 43.4527 48.9213 45.8049 46.0539 45.8049H5.94413C3.07681 45.8049 0.724609 43.4527 0.724609 40.5854V11.4146Z" fill="#0E0E0E" stroke="#C4C4C4" stroke-width="0.5"/>
</svg>
