<svg width="50" height="52" viewBox="0 0 50 52" fill="none" xmlns="http://www.w3.org/2000/svg">
<path fill-rule="evenodd" clip-rule="evenodd" d="M32.4609 46.4596C32.2491 46.3355 32.0422 46.2148 31.8391 46.0963C28.0974 43.9136 25.6466 42.4839 17.7381 34.5623C9.38643 26.2244 7.39199 23.1358 4.95435 18.953C2.76601 15.2135 3.43082 10.449 6.49173 7.38809L7.89477 5.98504C10.2026 3.67726 13.9442 3.67727 16.252 5.98505L19.5401 9.27311C21.3751 11.1082 21.3751 14.0834 19.54 15.9185L18.5575 16.901C18.5314 16.9271 18.5249 16.9671 18.5414 17.0002C18.8461 17.6234 19.414 18.5791 20.1204 19.6317C21.5608 21.7646 23.6383 24.41 25.7713 26.5291C27.8904 28.6621 30.3003 30.5042 32.1839 31.7091L32.2756 31.7672C33.5195 32.5509 35.1006 32.255 36.1402 31.2154L36.2988 31.0568C37.6828 29.6728 39.9266 29.6721 41.3115 31.0552L44.0154 33.7556C47.1021 36.8384 47.1007 41.8413 44.0121 44.9223C40.965 47.9832 36.2144 48.648 32.4609 46.4596ZM33.7963 29.1793C33.7977 29.1802 33.7992 29.1811 33.8006 29.182L33.8401 29.207C33.8767 29.1969 33.9453 29.1676 34.0189 29.0941L34.1775 28.9355C36.7326 26.3804 40.8748 26.3791 43.4315 28.9325L46.1353 31.6329C50.395 35.8871 50.3939 42.7903 46.1338 47.0432C42.1391 51.0521 35.8998 51.9372 30.9499 49.0513L30.9444 49.0481C30.7353 48.9256 30.5288 48.8052 30.3242 48.6859C28.5555 47.6546 26.9203 46.7013 24.858 45.1196C22.5802 43.3728 19.8207 40.8944 15.6168 36.6836C7.12003 28.2008 4.95389 24.9102 2.36347 20.4654C-0.52744 15.5224 0.367321 9.26986 4.37041 5.26677L5.77345 3.86372C9.25281 0.384369 14.894 0.384378 18.3733 3.86373L21.6614 7.15179C24.4611 9.95155 24.6538 14.3712 22.2393 17.3938C22.355 17.5738 22.4784 17.7617 22.6089 17.9562C23.9653 19.9643 25.9206 22.4486 27.8857 24.4009L27.8926 24.4078L27.8995 24.4147C29.8438 26.3718 32.0752 28.0778 33.7963 29.1793ZM21.2366 15.6825C21.2326 15.6744 21.2286 15.6663 21.2246 15.6582L18.5414 17.0002L21.2366 15.6825Z" fill="#0E0E0E"/>
</svg>
